<?xml version="1.0" encoding="utf-8"?>
<!-- Generator: Adobe Illustrator 21.0.2, SVG Export Plug-In . SVG Version: 6.00 Build 0)  -->
<svg version="1.1" id="Capa_1" xmlns="http://www.w3.org/2000/svg" xmlns:xlink="http://www.w3.org/1999/xlink" x="0px" y="0px"
	 viewBox="0 0 490 490" style="enable-background:new 0 0 490 490;" xml:space="preserve">
<style type="text/css">
	.st0{fill:#222222;}
</style>
<g>
	<g>
		<g>
			<path class="st0" d="M22.9,76.6c0,9.5,7.7,17.2,17.2,17.2h413c9.5,0,17.2-7.7,17.2-17.2s-7.7-17.2-17.2-17.2h-413
				C30.6,59.4,22.9,67.1,22.9,76.6z"/>
			<path class="st0" d="M36.8,264.1h413c9.5,0,17.2-7.7,17.2-17.1c0-9.5-7.7-17.2-17.2-17.2h-413c-9.5,0-17.1,7.7-17.1,17.2
				C19.7,256.5,27.3,264.1,36.8,264.1z"/>
			<path class="st0" d="M36.8,431.4h413c9.5,0,17.2-7.7,17.2-17.1s-7.7-17.2-17.2-17.2h-413c-9.5,0-17.1,7.7-17.1,17.2
				S27.3,431.4,36.8,431.4z"/>
		</g>
	</g>
</g>
</svg>
