<?xml version="1.0" encoding="utf-8"?>
<!-- Generator: Adobe Illustrator 21.0.2, SVG Export Plug-In . SVG Version: 6.00 Build 0)  -->
<svg version="1.1" id="Capa_1" xmlns="http://www.w3.org/2000/svg" xmlns:xlink="http://www.w3.org/1999/xlink" x="0px" y="0px"
	 viewBox="0 0 489.7 489.7" style="enable-background:new 0 0 489.7 489.7;" xml:space="preserve">
<style type="text/css">
	.st0{fill:#222222;}
</style>
<g>
	<g>
		<g>
			<path class="st0" d="M344.5,368.7l116,116c3.3,3.3,7.7,5,12.1,5s8.8-1.7,12.1-5c6.7-6.7,6.7-17.6,0-24.3l-116-116
				c31-36.5,49.7-83.7,49.7-135.2C418.4,93.8,324.5,0,209.2,0S0,93.8,0,209.2s93.9,209.2,209.3,209.2
				C260.8,418.4,308,399.7,344.5,368.7z M34.3,209.2c0-96.5,78.5-174.9,174.9-174.9s174.9,78.5,174.9,174.9s-78.5,174.9-174.9,174.9
				S34.3,305.6,34.3,209.2z"/>
		</g>
	</g>
</g>
</svg>
